<?xml version="1.0" encoding="UTF-8"?>
<svg id="Calque_1" xmlns="http://www.w3.org/2000/svg" width="40.353mm" height="20.353mm" baseProfile="tiny" version="1.2" viewBox="0 0 114.386 57.693">
  <!-- Generator: Adobe Illustrator 29.5.1, SVG Export Plug-In . SVG Version: 2.1.0 Build 141)  -->
  <rect x=".5" y=".5" width="113.386" height="56.693" fill="#fff" stroke="#1d1d1b" stroke-miterlimit="10"/>
  <g>
    <path d="M9.336,25.173h-2.459v-.888h5.985v.888h-2.471v7.196h-1.055v-7.196Z" fill="#1d1d1b"/>
    <path d="M13.645,23.853h1.056v3.622h.024c.168-.3.432-.564.755-.744.312-.18.684-.3,1.08-.3.779,0,2.027.479,2.027,2.482v3.454h-1.056v-3.334c0-.936-.348-1.727-1.343-1.727-.684,0-1.223.479-1.415,1.055-.06.144-.072.3-.072.504v3.502h-1.056v-8.515Z" fill="#1d1d1b"/>
    <path d="M21.48,24.933c.012.36-.252.648-.671.648-.372,0-.636-.288-.636-.648,0-.372.276-.66.66-.66.396,0,.647.288.647.66ZM20.305,32.369v-5.805h1.056v5.805h-1.056Z" fill="#1d1d1b"/>
    <path d="M22.968,31.289c.312.204.864.42,1.392.42.768,0,1.127-.384,1.127-.863,0-.504-.3-.78-1.079-1.067-1.043-.372-1.535-.948-1.535-1.644,0-.935.755-1.703,2.003-1.703.587,0,1.104.167,1.427.359l-.264.768c-.228-.144-.647-.335-1.187-.335-.624,0-.972.36-.972.792,0,.479.348.695,1.104.983,1.007.384,1.523.888,1.523,1.751,0,1.02-.792,1.739-2.171,1.739-.635,0-1.223-.156-1.631-.396l.264-.804Z" fill="#1d1d1b"/>
    <path d="M31.584,24.933c.012.36-.252.648-.671.648-.372,0-.636-.288-.636-.648,0-.372.276-.66.66-.66.396,0,.647.288.647.66ZM30.408,32.369v-5.805h1.056v5.805h-1.056Z" fill="#1d1d1b"/>
    <path d="M33.072,31.289c.312.204.864.42,1.392.42.768,0,1.127-.384,1.127-.863,0-.504-.3-.78-1.079-1.067-1.043-.372-1.535-.948-1.535-1.644,0-.935.755-1.703,2.003-1.703.587,0,1.103.167,1.427.359l-.264.768c-.228-.144-.647-.335-1.187-.335-.624,0-.972.36-.972.792,0,.479.348.695,1.104.983,1.007.384,1.523.888,1.523,1.751,0,1.02-.792,1.739-2.171,1.739-.635,0-1.223-.156-1.631-.396l.264-.804Z" fill="#1d1d1b"/>
    <path d="M43.727,32.369l-.084-.731h-.036c-.324.456-.947.863-1.775.863-1.175,0-1.775-.828-1.775-1.667,0-1.403,1.247-2.171,3.49-2.159v-.12c0-.479-.132-1.343-1.319-1.343-.54,0-1.103.168-1.511.432l-.24-.695c.48-.312,1.176-.516,1.907-.516,1.775,0,2.207,1.211,2.207,2.375v2.171c0,.503.024.995.096,1.391h-.959ZM43.571,29.406c-1.151-.024-2.459.18-2.459,1.307,0,.684.456,1.008.996,1.008.755,0,1.235-.48,1.403-.972.036-.108.06-.228.06-.336v-1.007Z" fill="#1d1d1b"/>
    <path d="M48.84,28.459c0-.744-.024-1.343-.048-1.895h.947l.048.995h.024c.432-.708,1.115-1.127,2.062-1.127,1.403,0,2.459,1.187,2.459,2.95,0,2.087-1.271,3.118-2.639,3.118-.768,0-1.439-.336-1.787-.912h-.024v3.154h-1.043v-6.284ZM49.884,30.006c0,.156.024.3.048.432.192.732.828,1.235,1.583,1.235,1.116,0,1.763-.911,1.763-2.243,0-1.163-.612-2.159-1.727-2.159-.72,0-1.391.516-1.595,1.307-.036.132-.072.288-.072.432v.995Z" fill="#1d1d1b"/>
    <path d="M55.668,23.853h1.056v8.515h-1.056v-8.515Z" fill="#1d1d1b"/>
    <path d="M61.714,32.369l-.084-.731h-.036c-.324.456-.947.863-1.775.863-1.175,0-1.775-.828-1.775-1.667,0-1.403,1.247-2.171,3.49-2.159v-.12c0-.479-.132-1.343-1.319-1.343-.54,0-1.103.168-1.511.432l-.24-.695c.48-.312,1.176-.516,1.907-.516,1.775,0,2.207,1.211,2.207,2.375v2.171c0,.503.024.995.096,1.391h-.959ZM61.558,29.406c-1.151-.024-2.459.18-2.459,1.307,0,.684.456,1.008.996,1.008.755,0,1.235-.48,1.403-.972.036-.108.06-.228.06-.336v-1.007Z" fill="#1d1d1b"/>
    <path d="M68.422,32.153c-.276.144-.888.336-1.667.336-1.751,0-2.891-1.188-2.891-2.962,0-1.787,1.224-3.083,3.119-3.083.624,0,1.175.156,1.463.3l-.24.815c-.252-.144-.647-.276-1.223-.276-1.332,0-2.051.984-2.051,2.195,0,1.343.864,2.171,2.015,2.171.6,0,.996-.156,1.295-.288l.18.792Z" fill="#1d1d1b"/>
    <path d="M70.176,29.658c.024,1.427.935,2.015,1.991,2.015.755,0,1.211-.132,1.607-.3l.18.756c-.372.168-1.007.36-1.931.36-1.787,0-2.854-1.175-2.854-2.927s1.032-3.13,2.723-3.13c1.895,0,2.399,1.667,2.399,2.734,0,.216-.024.384-.036.492h-4.078ZM73.27,28.902c.012-.671-.276-1.715-1.463-1.715-1.067,0-1.535.983-1.619,1.715h3.083Z" fill="#1d1d1b"/>
    <path d="M75.6,23.853h1.056v3.622h.024c.168-.3.432-.564.755-.744.312-.18.684-.3,1.08-.3.779,0,2.027.479,2.027,2.482v3.454h-1.056v-3.334c0-.936-.348-1.727-1.343-1.727-.684,0-1.223.479-1.415,1.055-.06.144-.072.3-.072.504v3.502h-1.056v-8.515Z" fill="#1d1d1b"/>
    <path d="M87.512,29.418c0,2.146-1.487,3.082-2.89,3.082-1.571,0-2.783-1.151-2.783-2.986,0-1.943,1.271-3.082,2.878-3.082,1.667,0,2.794,1.211,2.794,2.986ZM82.907,29.478c0,1.271.732,2.231,1.763,2.231,1.007,0,1.763-.947,1.763-2.255,0-.983-.492-2.23-1.739-2.23s-1.787,1.151-1.787,2.254Z" fill="#1d1d1b"/>
    <path d="M88.848,23.853h1.056v8.515h-1.056v-8.515Z" fill="#1d1d1b"/>
    <path d="M96.693,23.853v7.016c0,.516.012,1.103.048,1.499h-.947l-.048-1.007h-.024c-.324.647-1.032,1.139-1.979,1.139-1.403,0-2.483-1.187-2.483-2.95-.012-1.931,1.188-3.118,2.603-3.118.888,0,1.487.419,1.751.887h.024v-3.466h1.055ZM95.637,28.927c0-.132-.012-.312-.048-.444-.156-.672-.731-1.224-1.523-1.224-1.091,0-1.739.959-1.739,2.243,0,1.175.576,2.146,1.715,2.146.708,0,1.355-.468,1.547-1.259.036-.144.048-.288.048-.456v-1.007Z" fill="#1d1d1b"/>
    <path d="M99.035,29.658c.024,1.427.935,2.015,1.991,2.015.755,0,1.211-.132,1.607-.3l.18.756c-.372.168-1.007.36-1.931.36-1.787,0-2.854-1.175-2.854-2.927s1.032-3.13,2.723-3.13c1.895,0,2.399,1.667,2.399,2.734,0,.216-.024.384-.036.492h-4.078ZM102.13,28.902c.012-.671-.276-1.715-1.463-1.715-1.067,0-1.535.983-1.619,1.715h3.083Z" fill="#1d1d1b"/>
    <path d="M104.459,28.375c0-.684-.012-1.271-.048-1.811h.923l.036,1.139h.048c.264-.779.899-1.271,1.607-1.271.12,0,.204.012.3.036v.996c-.108-.024-.216-.036-.36-.036-.744,0-1.271.564-1.416,1.355-.024.144-.048.312-.048.492v3.094h-1.043v-3.994Z" fill="#1d1d1b"/>
  </g>
</svg>